<?xml version="1.0" standalone="no"?>
<!DOCTYPE svg PUBLIC "-//W3C//DTD SVG 20010904//EN"
 "http://www.w3.org/TR/2001/REC-SVG-20010904/DTD/svg10.dtd">
<svg version="1.0" xmlns="http://www.w3.org/2000/svg"
 width="1542.000000pt" height="1542.000000pt" viewBox="0 0 1542.000000 1542.000000"
 preserveAspectRatio="xMidYMid meet">

<g transform="translate(0.000000,1542.000000) scale(0.100000,-0.100000)"
fill="#000000" stroke="none">
<path d="M7345 14390 c-234 -136 -2486 -1438 -4115 -2380 -811 -469 -1481
-857 -1487 -862 -10 -8 -13 -688 -13 -3339 l0 -3329 37 -23 c21 -13 443 -258
938 -544 495 -286 1773 -1026 2840 -1643 1067 -617 1945 -1123 1950 -1123 6 0
321 179 700 398 380 219 1433 825 2340 1348 908 522 1803 1038 1990 1147 187
108 429 247 538 310 l197 113 -2 1504 -3 1505 -870 485 c-478 267 -876 487
-882 490 -10 4 -13 -295 -13 -1476 l0 -1481 -37 -24 c-21 -13 -330 -192 -688
-396 -690 -396 -2564 -1472 -3000 -1723 -228 -131 -263 -148 -285 -140 -14 5
-313 176 -665 380 -1408 815 -2315 1339 -2803 1621 l-512 296 2 2309 3 2309
90 52 c2308 1337 3891 2249 3901 2249 6 0 418 -235 915 -523 2117 -1226 2822
-1631 2891 -1660 94 -41 176 -49 249 -25 101 34 205 86 1067 543 l862 456 0
1263 c0 695 -2 1263 -5 1263 -2 0 -156 -84 -342 -186 -186 -103 -628 -346
-983 -542 -355 -195 -651 -359 -657 -364 -10 -8 -13 -68 -13 -240 0 -215 -1
-230 -17 -223 -10 3 -490 280 -1068 614 -1707 989 -2890 1673 -2895 1676 -3 2
-72 -37 -155 -85z"/>
<path d="M5497 10033 c-3 -5 145 -399 329 -878 183 -478 336 -878 339 -887 6
-16 -8 -18 -172 -20 l-178 -3 0 -245 0 -245 276 -3 277 -2 56 -148 c30 -81 86
-228 124 -327 l68 -180 278 -3 278 -2 -4 22 c-5 24 -1114 2881 -1129 2911 -9
15 -32 17 -274 17 -145 0 -266 -3 -268 -7z"/>
<path d="M7452 8568 l3 -1473 250 0 250 0 3 1473 2 1472 -255 0 -255 0 2
-1472z"/>
<path d="M8070 9790 l0 -250 218 0 c119 0 245 -5 280 -10 253 -41 384 -215
352 -468 -13 -102 -51 -180 -116 -242 -105 -100 -190 -120 -507 -120 l-227 0
2 -247 3 -248 114 -5 115 -5 342 -530 c188 -291 349 -540 358 -552 17 -23 17
-23 321 -23 167 0 306 4 309 8 3 5 -166 266 -375 582 -209 315 -381 576 -382
581 -1 4 40 28 91 54 240 121 400 319 468 581 21 80 26 125 27 229 0 72 -5
159 -12 194 -77 391 -384 656 -824 711 -45 5 -188 10 -319 10 l-238 0 0 -250z"/>
<path d="M9922 8568 l3 -1473 255 0 255 0 3 1473 2 1472 -260 0 -260 0 2
-1472z"/>
<path d="M5419 9863 c-5 -16 -250 -642 -543 -1393 -293 -751 -531 -1368 -529
-1372 2 -5 125 -8 273 -8 l269 0 14 28 c7 15 65 163 127 330 l114 302 278 0
278 0 0 250 0 250 -175 0 c-143 0 -175 3 -175 14 0 8 79 218 175 468 107 275
175 463 172 478 -4 38 -251 680 -260 680 -4 0 -12 -12 -18 -27z"/>
<path d="M7802 6591 c-76 -26 -122 -67 -162 -146 l-35 -68 -3 -241 c-5 -321 8
-386 91 -469 52 -52 117 -79 203 -85 190 -12 319 103 332 296 l5 72 -77 0 -76
0 0 -53 c0 -62 -31 -131 -73 -161 -21 -16 -43 -21 -87 -21 -68 1 -102 20 -135
76 -19 32 -20 52 -20 304 0 263 1 271 23 306 28 46 75 69 139 69 92 0 152 -68
153 -173 l0 -48 73 3 72 3 -2 59 c-3 92 -29 153 -88 212 -39 39 -66 56 -105
68 -70 21 -162 20 -228 -3z"/>
<path d="M4350 6589 c0 -6 65 -146 145 -310 l145 -300 0 -189 0 -188 76 -4
c42 -2 78 -1 80 1 2 2 4 91 4 197 l0 193 145 299 c80 164 145 302 145 306 0 4
-37 6 -81 4 l-81 -3 -99 -219 c-97 -215 -106 -233 -113 -225 -2 2 -40 87 -86
189 -45 102 -91 202 -101 223 l-19 37 -80 0 c-51 0 -80 -4 -80 -11z"/>
<path d="M5240 6574 c-23 -59 -302 -966 -298 -969 5 -6 138 -9 143 -3 3 2 20
56 39 119 l33 114 156 3 156 3 37 -120 37 -120 79 -3 c54 -2 78 1 78 9 0 6
-69 231 -154 500 l-154 488 -71 3 c-69 3 -71 2 -81 -24z m141 -407 c31 -106
55 -195 52 -199 -5 -10 -243 -11 -243 -2 0 4 14 52 31 108 17 56 44 145 60
199 17 55 33 96 37 92 4 -3 32 -93 63 -198z"/>
<path d="M5560 6589 c0 -7 65 -147 145 -311 l145 -299 0 -189 0 -188 76 -4
c42 -2 78 -1 80 1 2 2 4 91 4 197 l0 194 145 299 c80 165 145 303 145 306 0 3
-37 5 -81 3 l-82 -3 -100 -222 c-55 -123 -102 -223 -106 -223 -3 0 -51 100
-106 223 l-100 222 -83 3 c-58 2 -82 -1 -82 -9z"/>
<path d="M6410 6100 l0 -500 80 0 80 0 -2 498 -3 497 -77 3 -78 3 0 -501z"/>
<path d="M6780 6100 l0 -500 70 0 70 0 1 353 0 352 177 -352 177 -353 72 0 73
0 0 500 0 500 -70 0 -70 0 -2 -347 -3 -348 -175 348 -175 347 -72 0 -73 0 0
-500z"/>
<path d="M8430 6100 l0 -500 75 0 75 0 0 500 0 500 -75 0 -75 0 0 -500z"/>
<path d="M8797 6594 c-4 -4 -7 -229 -7 -501 l0 -493 255 0 255 0 0 65 0 65
-175 0 -175 0 -2 433 -3 432 -70 3 c-39 1 -74 0 -78 -4z"/>
<path d="M9430 6100 l0 -500 80 0 80 0 -2 498 -3 497 -77 3 -78 3 0 -501z"/>
<path d="M9800 6100 l0 -500 75 0 75 0 0 242 c0 167 3 239 10 232 6 -6 75
-114 153 -240 l142 -229 88 -3 c48 -1 87 0 87 3 0 3 -74 120 -166 260 l-165
255 160 234 c89 129 161 237 161 241 0 3 -39 4 -87 3 l-87 -3 -141 -222 c-77
-123 -143 -223 -147 -223 -5 0 -8 101 -8 225 l0 225 -75 0 -75 0 0 -500z"/>
</g>
</svg>
